<svg width="112" height="29" viewBox="0 0 112 29" fill="none" xmlns="http://www.w3.org/2000/svg">
<path d="M12.0586 6.46875L14.25 12.6562L16.4297 6.46875H18.7383V15H16.9746V12.668L17.1504 8.64258L14.8477 15H13.6406L11.3438 8.64844L11.5195 12.668V15H9.76172V6.46875H12.0586ZM25.1953 13.2422H22.1133L21.5273 15H19.6582L22.834 6.46875H24.4629L27.6562 15H25.7871L25.1953 13.2422ZM22.5879 11.8184H24.7207L23.6484 8.625L22.5879 11.8184ZM34.1719 7.89258H31.5586V15H29.8008V7.89258H27.2227V6.46875H34.1719V7.89258ZM42.123 15H40.3652V11.3438H36.9375V15H35.1797V6.46875H36.9375V9.92578H40.3652V6.46875H42.123V15ZM48.7969 11.3027H45.4219V13.5879H49.3828V15H43.6641V6.46875H49.3711V7.89258H45.4219V9.92578H48.7969V11.3027ZM56.8711 6.46875V12.0879C56.8711 13.0215 56.5781 13.7598 55.9922 14.3027C55.4102 14.8457 54.6133 15.1172 53.6016 15.1172C52.6055 15.1172 51.8145 14.8535 51.2285 14.3262C50.6426 13.7988 50.3438 13.0742 50.332 12.1523V6.46875H52.0898V12.0996C52.0898 12.6582 52.2227 13.0664 52.4883 13.3242C52.7578 13.5781 53.1289 13.7051 53.6016 13.7051C54.5898 13.7051 55.0918 13.1855 55.1074 12.1465V6.46875H56.8711ZM62.7363 12.7617C62.7363 12.4297 62.6191 12.1758 62.3848 12C62.1504 11.8203 61.7285 11.6328 61.1191 11.4375C60.5098 11.2383 60.0273 11.043 59.6719 10.8516C58.7031 10.3281 58.2188 9.62305 58.2188 8.73633C58.2188 8.27539 58.3477 7.86523 58.6055 7.50586C58.8672 7.14258 59.2402 6.85938 59.7246 6.65625C60.2129 6.45312 60.7598 6.35156 61.3652 6.35156C61.9746 6.35156 62.5176 6.46289 62.9941 6.68555C63.4707 6.9043 63.8398 7.21484 64.1016 7.61719C64.3672 8.01953 64.5 8.47656 64.5 8.98828H62.7422C62.7422 8.59766 62.6191 8.29492 62.373 8.08008C62.127 7.86133 61.7812 7.75195 61.3359 7.75195C60.9062 7.75195 60.5723 7.84375 60.334 8.02734C60.0957 8.20703 59.9766 8.44531 59.9766 8.74219C59.9766 9.01953 60.1152 9.25195 60.3926 9.43945C60.6738 9.62695 61.0859 9.80273 61.6289 9.9668C62.6289 10.2676 63.3574 10.6406 63.8145 11.0859C64.2715 11.5312 64.5 12.0859 64.5 12.75C64.5 13.4883 64.2207 14.0684 63.6621 14.4902C63.1035 14.9082 62.3516 15.1172 61.4062 15.1172C60.75 15.1172 60.1523 14.998 59.6133 14.7598C59.0742 14.5176 58.6621 14.1875 58.377 13.7695C58.0957 13.3516 57.9551 12.8672 57.9551 12.3164H59.7188C59.7188 13.2578 60.2812 13.7285 61.4062 13.7285C61.8242 13.7285 62.1504 13.6445 62.3848 13.4766C62.6191 13.3047 62.7363 13.0664 62.7363 12.7617ZM73.5 13.2422H70.418L69.832 15H67.9629L71.1387 6.46875H72.7676L75.9609 15H74.0918L73.5 13.2422ZM70.8926 11.8184H73.0254L71.9531 8.625L70.8926 11.8184ZM78.5156 13.5879H82.248V15H76.7578V6.46875H78.5156V13.5879ZM85.207 12.8848L87.1406 6.46875H89.0977L86.127 15H84.293L81.334 6.46875H83.2852L85.207 12.8848ZM95.0391 11.3027H91.6641V13.5879H95.625V15H89.9062V6.46875H95.6133V7.89258H91.6641V9.92578H95.0391V11.3027ZM101.08 12.7617C101.08 12.4297 100.963 12.1758 100.729 12C100.494 11.8203 100.072 11.6328 99.4629 11.4375C98.8535 11.2383 98.3711 11.043 98.0156 10.8516C97.0469 10.3281 96.5625 9.62305 96.5625 8.73633C96.5625 8.27539 96.6914 7.86523 96.9492 7.50586C97.2109 7.14258 97.584 6.85938 98.0684 6.65625C98.5566 6.45312 99.1035 6.35156 99.709 6.35156C100.318 6.35156 100.861 6.46289 101.338 6.68555C101.814 6.9043 102.184 7.21484 102.445 7.61719C102.711 8.01953 102.844 8.47656 102.844 8.98828H101.086C101.086 8.59766 100.963 8.29492 100.717 8.08008C100.471 7.86133 100.125 7.75195 99.6797 7.75195C99.25 7.75195 98.916 7.84375 98.6777 8.02734C98.4395 8.20703 98.3203 8.44531 98.3203 8.74219C98.3203 9.01953 98.459 9.25195 98.7363 9.43945C99.0176 9.62695 99.4297 9.80273 99.9727 9.9668C100.973 10.2676 101.701 10.6406 102.158 11.0859C102.615 11.5312 102.844 12.0859 102.844 12.75C102.844 13.4883 102.564 14.0684 102.006 14.4902C101.447 14.9082 100.695 15.1172 99.75 15.1172C99.0938 15.1172 98.4961 14.998 97.957 14.7598C97.418 14.5176 97.0059 14.1875 96.7207 13.7695C96.4395 13.3516 96.2988 12.8672 96.2988 12.3164H98.0625C98.0625 13.2578 98.625 13.7285 99.75 13.7285C100.168 13.7285 100.494 13.6445 100.729 13.4766C100.963 13.3047 101.08 13.0664 101.08 12.7617Z" fill="white"/>
<path d="M7.40625 27.2891C6.02344 26.8984 4.98047 26.2539 4.27734 25.3555C3.58203 24.4648 3.23438 23.2852 3.23438 21.8164V19.4844C3.23438 17.5859 2.40625 16.6367 0.75 16.6367V14.9375C2.40625 14.9375 3.23438 13.9922 3.23438 12.1016V9.66406C3.25 8.23438 3.59766 7.08203 4.27734 6.20703C4.96484 5.32422 6.00781 4.68359 7.40625 4.28516L7.85156 5.63281C6.21875 6.15625 5.40234 7.51953 5.40234 9.72266V12.0898C5.40234 13.8633 4.75 15.0977 3.44531 15.793C4.75 16.4961 5.40234 17.7422 5.40234 19.5312V21.9453C5.42578 24.0938 6.24219 25.4258 7.85156 25.9414L7.40625 27.2891Z" fill="white"/>
<path d="M103.223 24.9414C104.809 24.4336 105.629 23.1406 105.684 21.0625V18.4844C105.684 16.6797 106.391 15.4492 107.805 14.793C106.391 14.1523 105.684 12.9219 105.684 11.1016V8.72266C105.684 6.51953 104.867 5.15625 103.234 4.63281L103.68 3.28516C105.062 3.67578 106.102 4.3125 106.797 5.19531C107.492 6.07031 107.844 7.23047 107.852 8.67578V11.1367C107.852 13.0039 108.68 13.9375 110.336 13.9375V15.6367C108.68 15.6367 107.852 16.5859 107.852 18.4844V20.8516C107.852 22.3203 107.496 23.4961 106.785 24.3789C106.082 25.2617 105.047 25.8984 103.68 26.2891L103.223 24.9414Z" fill="#FF0000"/>
<path d="M15.8555 22.5898H13.5664V25H12.5781V19.3125H16.1914V20.1094H13.5664V21.8008H15.8555V22.5898ZM19.0664 22.8086H17.9648V25H16.9766V19.3125H18.9766C19.6328 19.3125 20.1393 19.4596 20.4961 19.7539C20.8529 20.0482 21.0312 20.474 21.0312 21.0312C21.0312 21.4115 20.9388 21.7305 20.7539 21.9883C20.5716 22.2435 20.3164 22.4401 19.9883 22.5781L21.2656 24.9492V25H20.207L19.0664 22.8086ZM17.9648 22.0156H18.9805C19.3138 22.0156 19.5742 21.9323 19.7617 21.7656C19.9492 21.5964 20.043 21.3659 20.043 21.0742C20.043 20.7695 19.9557 20.5339 19.7812 20.3672C19.6094 20.2005 19.3516 20.1146 19.0078 20.1094H17.9648V22.0156ZM26.5078 22.3047C26.5078 22.862 26.4115 23.3516 26.2188 23.7734C26.026 24.1927 25.75 24.5156 25.3906 24.7422C25.0339 24.9661 24.6224 25.0781 24.1562 25.0781C23.6953 25.0781 23.2839 24.9661 22.9219 24.7422C22.5625 24.5156 22.2839 24.194 22.0859 23.7773C21.8906 23.3607 21.7917 22.8802 21.7891 22.3359V22.0156C21.7891 21.4609 21.8867 20.9714 22.082 20.5469C22.2799 20.1224 22.5573 19.7982 22.9141 19.5742C23.2734 19.3477 23.6849 19.2344 24.1484 19.2344C24.612 19.2344 25.0221 19.3464 25.3789 19.5703C25.7383 19.7917 26.0156 20.112 26.2109 20.5312C26.4062 20.9479 26.5052 21.4336 26.5078 21.9883V22.3047ZM25.5195 22.0078C25.5195 21.3776 25.3997 20.8945 25.1602 20.5586C24.9232 20.2227 24.5859 20.0547 24.1484 20.0547C23.7214 20.0547 23.3867 20.2227 23.1445 20.5586C22.9049 20.8919 22.7826 21.3646 22.7773 21.9766V22.3047C22.7773 22.9297 22.8984 23.4128 23.1406 23.7539C23.3854 24.0951 23.724 24.2656 24.1562 24.2656C24.5938 24.2656 24.9297 24.099 25.1641 23.7656C25.401 23.4323 25.5195 22.9453 25.5195 22.3047V22.0078ZM32.0039 25H31.0156L28.4805 20.9648V25H27.4922V19.3125H28.4805L31.0234 23.3633V19.3125H32.0039V25ZM37.1641 20.1094H35.3906V25H34.4102V20.1094H32.6523V19.3125H37.1641V20.1094ZM38.6016 22.9648H36.5508V22.1992H38.6016V22.9648ZM42.8008 22.4609H40.4648V24.2109H43.1953V25H39.4766V19.3125H43.168V20.1094H40.4648V21.6797H42.8008V22.4609ZM48.5117 25H47.5234L44.9883 20.9648V25H44V19.3125H44.9883L47.5312 23.3633V19.3125H48.5117V25ZM49.6797 25V19.3125H51.3594C51.862 19.3125 52.3073 19.4245 52.6953 19.6484C53.0859 19.8724 53.388 20.1901 53.6016 20.6016C53.8151 21.013 53.9219 21.4844 53.9219 22.0156V22.3008C53.9219 22.8398 53.8138 23.3138 53.5977 23.7227C53.3841 24.1315 53.0781 24.4466 52.6797 24.668C52.2839 24.8893 51.8294 25 51.3164 25H49.6797ZM50.668 20.1094V24.2109H51.3125C51.8307 24.2109 52.2279 24.0495 52.5039 23.7266C52.7826 23.401 52.9245 22.9349 52.9297 22.3281V22.0117C52.9297 21.3945 52.7956 20.9232 52.5273 20.5977C52.2591 20.2721 51.8698 20.1094 51.3594 20.1094H50.668ZM56.8984 25V19.3125H58.5781C59.0807 19.3125 59.526 19.4245 59.9141 19.6484C60.3047 19.8724 60.6068 20.1901 60.8203 20.6016C61.0339 21.013 61.1406 21.4844 61.1406 22.0156V22.3008C61.1406 22.8398 61.0326 23.3138 60.8164 23.7227C60.6029 24.1315 60.2969 24.4466 59.8984 24.668C59.5026 24.8893 59.0482 25 58.5352 25H56.8984ZM57.8867 20.1094V24.2109H58.5312C59.0495 24.2109 59.4466 24.0495 59.7227 23.7266C60.0013 23.401 60.1432 22.9349 60.1484 22.3281V22.0117C60.1484 21.3945 60.0143 20.9232 59.7461 20.5977C59.4779 20.2721 59.0885 20.1094 58.5781 20.1094H57.8867ZM65.4492 22.4609H63.1133V24.2109H65.8438V25H62.125V19.3125H65.8164V20.1094H63.1133V21.6797H65.4492V22.4609ZM68.6523 23.7617L70.0977 19.3125H71.1836L69.1367 25H68.1797L66.1406 19.3125H67.2227L68.6523 23.7617ZM75.1523 22.4609H72.8164V24.2109H75.5469V25H71.8281V19.3125H75.5195V20.1094H72.8164V21.6797H75.1523V22.4609ZM77.3398 24.2109H79.9219V25H76.3516V19.3125H77.3398V24.2109ZM84.9688 22.3047C84.9688 22.862 84.8724 23.3516 84.6797 23.7734C84.487 24.1927 84.2109 24.5156 83.8516 24.7422C83.4948 24.9661 83.0833 25.0781 82.6172 25.0781C82.1562 25.0781 81.7448 24.9661 81.3828 24.7422C81.0234 24.5156 80.7448 24.194 80.5469 23.7773C80.3516 23.3607 80.2526 22.8802 80.25 22.3359V22.0156C80.25 21.4609 80.3477 20.9714 80.543 20.5469C80.7409 20.1224 81.0182 19.7982 81.375 19.5742C81.7344 19.3477 82.1458 19.2344 82.6094 19.2344C83.0729 19.2344 83.4831 19.3464 83.8398 19.5703C84.1992 19.7917 84.4766 20.112 84.6719 20.5312C84.8672 20.9479 84.9661 21.4336 84.9688 21.9883V22.3047ZM83.9805 22.0078C83.9805 21.3776 83.8607 20.8945 83.6211 20.5586C83.3841 20.2227 83.0469 20.0547 82.6094 20.0547C82.1823 20.0547 81.8477 20.2227 81.6055 20.5586C81.3659 20.8919 81.2435 21.3646 81.2383 21.9766V22.3047C81.2383 22.9297 81.3594 23.4128 81.6016 23.7539C81.8464 24.0951 82.1849 24.2656 82.6172 24.2656C83.0547 24.2656 83.3906 24.099 83.625 23.7656C83.862 23.4323 83.9805 22.9453 83.9805 22.3047V22.0078ZM86.9414 22.8867V25H85.9531V19.3125H88.1289C88.7643 19.3125 89.2682 19.4779 89.6406 19.8086C90.0156 20.1393 90.2031 20.5768 90.2031 21.1211C90.2031 21.6784 90.0195 22.112 89.6523 22.4219C89.2878 22.7318 88.776 22.8867 88.1172 22.8867H86.9414ZM86.9414 22.0938H88.1289C88.4805 22.0938 88.7487 22.0117 88.9336 21.8477C89.1185 21.681 89.2109 21.4414 89.2109 21.1289C89.2109 20.8216 89.1172 20.5768 88.9297 20.3945C88.7422 20.2096 88.4844 20.1146 88.1562 20.1094H86.9414V22.0938ZM94.3945 22.4609H92.0586V24.2109H94.7891V25H91.0703V19.3125H94.7617V20.1094H92.0586V21.6797H94.3945V22.4609ZM97.6836 22.8086H96.582V25H95.5938V19.3125H97.5938C98.25 19.3125 98.7565 19.4596 99.1133 19.7539C99.4701 20.0482 99.6484 20.474 99.6484 21.0312C99.6484 21.4115 99.556 21.7305 99.3711 21.9883C99.1888 22.2435 98.9336 22.4401 98.6055 22.5781L99.8828 24.9492V25H98.8242L97.6836 22.8086ZM96.582 22.0156H97.5977C97.931 22.0156 98.1914 21.9323 98.3789 21.7656C98.5664 21.5964 98.6602 21.3659 98.6602 21.0742C98.6602 20.7695 98.5729 20.5339 98.3984 20.3672C98.2266 20.2005 97.9688 20.1146 97.625 20.1094H96.582V22.0156Z" fill="#FD0000"/>
</svg>
