<svg width="45" height="45" viewBox="0 0 45 45" fill="none" xmlns="http://www.w3.org/2000/svg">
<path d="M3.75 22.5L13.125 30V24.375H30V20.625H13.125V15L3.75 22.5Z" fill="white"/>
<path d="M24.3768 5.62311C22.1597 5.61696 19.9634 6.05082 17.9151 6.89954C15.8668 7.74827 14.0073 8.99499 12.4443 10.5675L15.0956 13.2187C17.5743 10.74 20.8706 9.37311 24.3768 9.37311C27.8831 9.37311 31.1793 10.74 33.6581 13.2187C36.1368 15.6975 37.5037 18.9937 37.5037 22.5C37.5037 26.0062 36.1368 29.3025 33.6581 31.7812C31.1793 34.26 27.8831 35.6269 24.3768 35.6269C20.8706 35.6269 17.5743 34.26 15.0956 31.7812L12.4443 34.4325C15.63 37.62 19.8675 39.3769 24.3768 39.3769C28.8862 39.3769 33.1237 37.62 36.3093 34.4325C39.4968 31.2469 41.2537 27.0094 41.2537 22.5C41.2537 17.9906 39.4968 13.7531 36.3093 10.5675C34.7463 8.99499 32.8868 7.74827 30.8386 6.89954C28.7903 6.05082 26.594 5.61696 24.3768 5.62311Z" fill="white"/>
</svg>
