<svg width="574" height="442" viewBox="0 0 574 442" fill="none" xmlns="http://www.w3.org/2000/svg">
<path d="M540.259 410.258H423.311V354.541C429.254 354.4 437.859 354.212 450.318 353.96C475.962 353.445 483.807 331.798 483.807 331.798C483.807 331.798 485.998 327.396 485.368 326.226C483.751 323.219 473.453 322.171 464.706 321.829H523.104C525.838 321.829 528.056 319.61 528.056 316.874C528.056 314.136 525.838 311.917 523.104 311.917H423.311V47.7061H61.1401V410.258H34.785V26.594H540.259V410.258ZM421.535 408.481H421.515V354.583C421.522 354.583 421.528 354.583 421.535 354.583V408.481ZM62.9862 408.481H62.9147V49.4845H421.535V311.917H421.515V199.586H408.864V225.07H394.137V175.773H371.36V213.525H342.561V174.325H305.687V187.596H288.065V150.597H269.196V189.955H238.785V244.518H214.452V114.331H190.327V191.227H166.338V140.95H134.91V205.435H123.422V136.28H114.297V205.435H104.835V223.939H80.3372V186.644H62.9862V408.481ZM421.515 325.535V321.829H421.535V325.533C421.528 325.533 421.522 325.535 421.515 325.535ZM423.311 325.329V321.829H451.146C447.504 322.304 431.591 324.366 423.311 325.329Z" fill="#F1F4FA"/>
<path d="M62.9145 408.481H421.537V49.4851H62.9145V408.481ZM423.31 410.258H61.14V47.7069H423.31V410.258Z" fill="#CED4EA"/>
<path d="M421.511 410.26H358.815H380.069C380.069 410.258 380.069 410.258 380.069 410.258H421.511V410.26ZM347.524 410.26H62.986L325.965 410.258C325.965 410.258 325.965 410.258 325.965 410.26H345.334H347.524Z" fill="#EBEEF7"/>
<path d="M421.511 408.481H382.401L383.671 403.637H384.542C413.115 375.594 410.045 354.931 410.045 354.931C410.045 354.931 410.045 354.862 421.511 354.584V408.481ZM326.089 408.481H62.986V186.646H80.337V223.94H104.835V205.436H114.296V136.282H123.421V205.436H134.909V140.952H166.337V191.228H190.326V114.332H214.45V244.519H238.783V189.957H269.193V150.6H288.063V187.597H305.686V174.327H342.559V213.527H371.359V175.774H394.134V225.072H408.861V199.587H421.511V311.918H190.544C187.81 311.918 185.593 314.136 185.593 316.875C185.593 319.611 187.81 321.829 190.544 321.829H347.524V391.126C336.053 392.845 327.237 399.847 326.089 408.481ZM289.971 310.777H290.667L281.665 277.718H236.344H235.646L245.031 310.777H289.971ZM371.072 395.743C368.639 394.156 365.81 392.885 362.704 392.019C361.452 391.67 360.152 391.389 358.815 391.177V321.829H421.511V325.536C421.263 325.564 421.025 325.589 420.8 325.613C409.497 326.835 396.559 331.016 396.559 331.016C396.559 331.016 386.722 351.339 383.948 358.513C380.992 366.149 374.659 384.973 371.072 395.743Z" fill="#E3E7F4"/>
<path d="M421.511 410.258H380.069C380.069 410.121 380.063 409.984 380.061 409.849L382.042 409.847L382.401 408.481H421.511V410.26V410.258ZM325.965 410.258H62.986V408.481H326.089C326.014 409.067 325.97 409.657 325.965 410.258Z" fill="#CED4EA"/>
<path d="M544.119 413.392H31.4728C30.6138 413.392 29.9109 412.689 29.9109 411.829V411.825C29.9109 410.963 30.6138 410.26 31.4728 410.26H544.119C544.976 410.26 545.679 410.963 545.679 411.825V411.829C545.679 412.689 544.976 413.392 544.119 413.392Z" fill="#CED4EA"/>
<path d="M129.549 403.696L131.691 410.594H152.947C152.947 410.594 147.51 401.292 129.549 403.696Z" fill="#221E50"/>
<path d="M137.749 266.223L99.5358 272.663C99.5358 272.663 113.255 343.821 129.205 404.273L148.446 404.837L137.749 266.223Z" fill="#2B295E"/>
<path d="M82.9307 403.115L85.1538 410.271H107.214C107.214 410.271 101.571 400.618 82.9307 403.115Z" fill="#221E50"/>
<path d="M188.129 246.932L192.136 246.037C192.136 246.037 198.324 241.257 204.867 246.802C204.867 246.802 207.379 249.27 204.932 250.207C202.484 251.147 203.267 250.468 199.85 251.858C196.433 253.248 192.584 253.094 190.581 251.363L185.594 251.401L188.129 246.932Z" fill="#E1ACB0"/>
<path d="M80.9388 403.999C80.9388 403.999 89.8871 289.877 101.001 268.838L132.337 268.687L131.787 288.482C131.787 288.482 130.081 288.867 128.412 292.281L99.8226 403.776L80.9388 403.999Z" fill="#333380"/>
<path d="M130.002 215.356L142.451 235.725L151.423 250.406C151.423 250.406 162.408 252.375 172.843 253.706C172.985 253.723 173.126 253.739 173.269 253.757C173.332 253.763 173.395 253.77 173.458 253.776C173.594 253.79 173.73 253.805 173.867 253.816C182.156 254.568 191.288 251.918 191.288 251.918L191.223 249.792L191.117 246.265C191.117 246.265 182.912 243.443 178.61 242.435C173.388 241.21 165.898 239.973 165.898 239.973C156.013 218.942 148.156 197.395 145.583 195.583C141.06 192.396 130.87 190.546 130.87 190.546L130.002 215.356Z" fill="#555CA1"/>
<path d="M129.826 178.972C129.826 178.972 128.642 183.342 127.431 192.268C127.431 192.268 120.461 198.299 117.561 197.751C115.042 197.276 112.108 189.267 112.108 189.267C112.108 189.267 114.885 185.32 117.628 174.086L129.826 178.972Z" fill="#D09196"/>
<path d="M131.588 183.359C131.588 183.359 117.676 186.285 115.99 177.582C114.304 168.882 111.373 163.401 120.185 161.164C128.996 158.93 131.37 161.913 132.638 164.68C133.907 167.449 135.163 182.376 131.588 183.359Z" fill="#E1ACB0"/>
<path d="M115.99 177.582C115.99 177.582 115.141 165.746 127.695 164.13C140.25 162.515 132.926 151.571 121.914 151.577C121.914 151.577 123.711 155.56 117.069 157.319C103.127 161.007 114.43 175.938 115.99 177.582Z" fill="#555C9F"/>
<path d="M101.43 283.618C111.111 283.618 115.317 276.588 115.359 276.515L114.913 276.254C114.892 276.29 111.78 279.897 108.42 281.715C105.019 283.561 101.371 283.618 101.43 283.618Z" fill="#221E50"/>
<path d="M87.3901 394.178C87.574 383.826 88.3421 371.636 89.7667 359.021C89.9848 357.092 90.2206 355.11 90.4674 353.129C90.7403 350.944 91.0297 348.734 91.3278 346.559C91.4302 345.812 91.7799 344.986 92.1183 344.19C92.4329 343.447 92.7579 342.68 92.8509 342.037C94.0428 333.779 95.4893 326.273 96.7653 319.652C97.1 317.915 97.4276 316.218 97.7422 314.549C100.584 299.486 102.143 290.94 102.153 290.856C102.143 290.94 101.073 299.524 98.2268 314.609C97.912 316.278 97.5844 317.977 97.2495 319.714C95.9745 326.329 94.5296 333.825 93.3396 342.073C93.2359 342.791 92.8948 343.595 92.5658 344.371C92.2426 345.131 91.9088 345.92 91.817 346.588C91.519 348.762 91.23 350.97 90.9575 353.151C90.7107 355.132 90.4754 357.112 90.2577 359.037C88.8349 371.634 87.7105 383.875 87.5266 394.209L87.3901 394.178Z" fill="#2B295E"/>
<path d="M99.5359 272.663C99.7567 272.743 109.028 276.299 130.331 273.43C135.056 272.794 137.336 272.325 139.463 266.42C143.853 252.258 145.816 195.678 145.583 195.583C145.671 195.892 139.075 191.762 127.766 189.941C126.923 191.384 125.271 193.085 122.592 193.161C119.369 193.249 114.636 190.758 112.108 189.267C108.917 189.516 105.547 190.005 102.02 190.802C101.697 190.873 100.466 203.735 99.6355 219.117C99.3889 223.685 99.1767 228.476 99.0354 233.221C98.4833 251.642 95.9879 271.377 99.5359 272.663Z" fill="#555CA1"/>
<path d="M99.0353 233.221C102.446 234.782 109.093 237.204 109.376 232.594C109.758 226.377 104.695 216.335 102.689 215.952C101.519 215.729 100.38 217.557 99.6353 219.117C99.3887 223.685 99.1766 228.476 99.0353 233.221Z" fill="#4F549C"/>
<path d="M84.0345 263.964L112.44 276.553L129.176 238.709L100.771 226.121L84.0345 263.964Z" fill="#CE5D2B"/>
<path d="M111.174 252.192L112.19 253.458C112.19 253.458 119.15 249.794 124.673 256.426C124.673 256.426 126.735 259.308 124.148 259.812C121.56 260.318 122.453 259.781 118.825 260.566C115.198 261.35 111.411 260.53 109.726 258.466L107.867 256.163L111.174 252.192Z" fill="#E1ACB0"/>
<path d="M112.108 189.267C112.108 189.267 97.4934 189.386 95.557 190.82C93.6204 192.255 74.2559 224.386 73.9331 236.72C73.9331 236.72 85.9483 249.425 107.895 256.884L112.289 252.437C112.289 252.437 95.744 235.686 87.8544 232.625C87.8544 232.625 100.908 219.365 103.777 212.224C106.646 205.084 112.108 189.267 112.108 189.267Z" fill="#555CA1"/>
<path d="M142.451 235.725L151.423 250.406C151.423 250.406 162.408 252.375 172.843 253.706C172.985 253.723 173.126 253.739 173.269 253.757C173.332 253.763 173.395 253.77 173.458 253.776C173.594 253.79 173.73 253.805 173.867 253.816C182.155 254.568 191.288 251.918 191.288 251.918L191.223 249.792C180.855 248.123 155.769 246.864 153.894 245.871C151.56 244.634 144.832 222.916 143.459 223.877C142.463 224.576 142.406 231.701 142.451 235.725Z" fill="#4F549C"/>
<path d="M268.396 348.175C268.401 348.203 268.405 348.234 268.41 348.263C269.124 353.474 270.796 357.653 272.301 360.193C276.152 366.69 283.453 373.923 300.958 376.288C301.806 376.398 302.68 376.504 303.577 376.593C305.211 376.761 306.929 376.887 308.733 376.969C308.962 376.978 309.191 376.988 309.424 376.993C314.514 376.867 320.212 375.932 326.569 374.423C339.612 371.324 348.109 364.946 353.483 357.191V357.189C355.131 354.816 356.482 352.316 357.583 349.737C360.569 342.758 361.71 335.235 361.819 328.258C361.716 321.637 360.693 315.661 359.552 311.409C358.664 308.094 357.281 304.945 355.406 302.169C354.913 301.44 354.385 300.735 353.819 300.061C352.032 297.91 349.89 296.065 347.388 294.635C341.155 291.081 320.66 287.539 303.302 296.71C271.348 313.586 266.538 334.435 268.396 348.175Z" fill="#B5451E"/>
<path d="M282.088 403.469H307.509V363.253H314.618V403.469H341.06C342.435 403.469 343.561 404.596 343.561 405.973C343.561 407.349 342.435 408.477 341.06 408.477H282.088C280.712 408.477 279.587 407.349 279.587 405.973C279.587 404.596 280.712 403.469 282.088 403.469Z" fill="#B7BED4"/>
<path d="M272.301 360.192C270.795 357.653 269.124 353.474 268.409 348.263C268.405 348.243 268.402 348.223 268.4 348.203C278.553 347.125 291.493 345.827 302.754 344.727C307.602 344.252 312.457 344.157 317.179 344.325C333.94 344.917 349.723 349.072 356.909 351.231C355.942 353.282 354.809 355.277 353.485 357.189L353.482 357.191C348.109 364.946 339.611 371.324 326.568 374.422C320.212 375.932 314.514 376.867 309.423 376.993C309.192 376.988 308.962 376.977 308.732 376.968C306.929 376.887 305.211 376.761 303.578 376.593C302.681 376.504 301.805 376.398 300.957 376.288C283.452 373.923 276.151 366.69 272.301 360.192Z" fill="#C3592D"/>
<path d="M260.987 315.74C261.046 315.774 261.106 315.811 261.161 315.855C262.02 316.328 265.038 317.274 265.038 317.274C265.038 317.274 264.802 320.472 264.733 320.521L255.827 320.134L256.216 318.697C256.231 318.605 256.256 318.514 256.289 318.428C256.386 318.163 256.558 317.924 256.799 317.745L259.349 315.844C259.839 315.48 260.483 315.46 260.987 315.74Z" fill="#E5B0B4"/>
<path d="M269.557 384.259L268.228 394.744L262.786 394.912L259.267 379.733L269.557 384.259Z" fill="#E5B0B4"/>
<path d="M268.934 390.489L269.557 396.364L254.233 403.427C254.233 403.427 255.165 394.673 268.934 390.489Z" fill="#D25C2A"/>
<path d="M236.095 399.703L228.701 407.246L224.266 404.085L230.635 389.868L236.095 399.703Z" fill="#E5B0B4"/>
<path d="M233.552 402.852L231.852 408.481H214.981C214.981 408.481 219.297 400.887 233.552 402.852Z" fill="#D25C2A"/>
<path d="M292.201 275.386C295.062 267.545 294.65 242.212 294.689 240.51C294.822 235.053 296.78 234.262 296.78 234.262C297.838 231.374 315.863 228.16 319.462 239.438C323.946 253.494 332.529 262.267 332.988 275.386H292.201Z" fill="#D25C2A"/>
<path d="M302.805 254.581C302.805 254.581 303.138 258.745 301.494 265.154L296.818 276.71L314.636 271.901C314.636 271.901 310.962 263.277 311.234 254.099L302.805 254.581Z" fill="#D09196"/>
<path d="M299.902 258.048C299.902 258.048 312.923 260.429 314.278 252.287C315.636 244.148 318.228 238.972 309.971 237.109C301.717 235.246 299.58 238.081 298.467 240.689C297.354 243.295 296.551 257.22 299.902 258.048Z" fill="#E5B0B4"/>
<path d="M297.69 236.207C297.69 236.207 313.91 248.718 312.477 257.96C311.13 266.641 313.684 267.414 315.581 268.243C320.477 270.38 326.895 266.473 329.438 266.599C331.249 266.69 326.597 264.508 323.641 260.555C315.773 250.035 316.539 235.823 314.969 234.797C304.269 227.825 297.69 236.207 297.69 236.207Z" fill="#D25C2A"/>
<path d="M264.378 320.793C264.378 320.793 273.871 320.3 279.644 318.675C290.758 315.548 292.391 314.103 294.025 303.281C295.729 291.992 295.361 280.679 294.875 274.02C294.82 273.236 294.762 272.515 294.705 271.868C294.493 269.452 294.303 268.047 294.303 268.047C294.303 268.047 287.817 269.872 286.609 277.481C285.179 286.491 284.201 303.429 283.225 306.529C282.669 308.297 265.038 317.274 265.038 317.274L264.528 319.986L264.378 320.793Z" fill="#555CA3"/>
<path d="M264.378 320.793C264.378 320.793 273.871 320.3 279.644 318.675C290.758 315.548 292.391 314.103 294.025 303.281C295.729 291.992 295.361 280.679 294.875 274.02C293.151 274.772 291.451 277.258 290.632 283.523C288.621 298.876 292.14 308.441 285.854 312.845C280.611 316.516 269.253 319.102 264.528 319.986L264.378 320.793Z" fill="#4F549E"/>
<path d="M324.072 307.687C323.91 306.724 323.95 305.544 323.95 304.792C323.95 300.553 326.401 291.154 326.511 290.725L326.516 290.71C326.602 290.814 327.447 291.601 336.523 304.299C335.172 304.467 333.675 304.768 332.167 305.201C329.277 306.028 325.86 306.881 324.072 307.687ZM292.643 302.304C297.692 318.759 291.371 326.534 291.371 326.534C291.371 326.534 301.112 331.955 303.893 331.407C304.622 331.264 326.69 327.655 327.24 327.507C329.54 326.89 330.392 326.3 330.392 326.3C330.392 326.3 327.584 319.661 325.677 313.343C327.77 313.683 331.026 313.959 335.115 313.504C336.004 313.407 336.936 313.272 337.901 313.095C343.627 312.054 344.983 311.712 346.782 310.37C347.425 309.893 347.831 308.638 347.639 307.864C346.425 303.018 340.523 287.753 330.525 271.189C329.163 268.935 323.235 267.834 323.235 267.834L312.505 265.297C311.532 267.587 310.115 270.661 306.723 270.685C297.972 270.752 301.443 265.688 301.392 265.406L294.303 268.046C294.303 268.046 292.378 273.03 291.914 276.628C291.793 277.561 291.559 278.48 291.157 279.329C291.071 279.514 290.974 279.7 290.868 279.874C288.45 284.012 290.15 294.184 292.643 302.304Z" fill="#555CA3"/>
<path d="M315.316 313.809C316.528 318.339 319.082 324.547 323.169 326.563C324.127 327.034 325.577 327.33 327.24 327.507C329.54 326.89 330.392 326.3 330.392 326.3C330.392 326.3 323.484 312.284 323.95 304.792C324.213 300.562 326.401 291.154 326.511 290.726C325.975 289.705 325.253 288.77 324.405 288.807C322.564 288.891 314.102 309.278 315.316 313.809Z" fill="#4F549E"/>
<path d="M330.394 326.3C331.169 327.924 341.391 346.338 324.42 351.244C307.45 356.153 270.747 354.824 270.747 354.824C270.747 354.824 266.852 370.226 262.051 376.995C254.342 387.864 240.596 400.056 240.596 400.056H224.86C224.86 400.056 252.081 341.027 257.611 337.001C261.658 334.055 282.013 328.844 293.263 327.095C296.005 326.669 312.591 326.165 317.033 325.99C323.99 325.716 329.964 325.398 330.394 326.3Z" fill="#333380"/>
<path d="M293.263 327.095C293.263 327.095 258.627 316.501 252.013 320.304C240.261 327.065 260.373 387.19 260.373 387.19L271.966 385.331C271.966 385.331 274.134 369.07 272.403 358.148C271.398 351.808 267.74 335.443 267.74 335.443C267.74 335.443 276.589 331.847 279.644 330.961C283.479 329.849 293.263 327.095 293.263 327.095Z" fill="#2B295E"/>
<path d="M319.455 309.42C319.524 309.409 319.592 309.4 319.663 309.398C320.628 309.223 322.438 308.315 322.438 308.315L323.019 311.484C323.012 311.566 323.392 312.563 322.972 313.128C320.301 316.715 319.325 316.236 319.325 316.236L317.625 314.731C317.581 314.649 317.543 314.565 317.513 314.474C317.422 314.209 317.402 313.915 317.475 313.623L318.252 310.538C318.4 309.944 318.888 309.522 319.455 309.42Z" fill="#E5B0B4"/>
<path d="M263.757 348.614C264.521 348.508 265.356 348.137 266.162 347.779C266.912 347.445 267.687 347.1 268.345 347.005C276.807 345.77 284.477 344.258 291.243 342.924C293.018 342.574 294.756 342.232 296.462 341.903C311.861 338.934 320.599 337.308 320.685 337.297C320.599 337.308 311.797 338.411 296.376 341.383C294.672 341.712 292.932 342.055 291.157 342.404C284.397 343.737 276.734 345.248 268.288 346.482C267.55 346.59 266.738 346.95 265.954 347.299C265.184 347.642 264.387 347.996 263.702 348.091C261.475 348.398 261.528 348.922 263.757 348.614Z" fill="#2B295E"/>
<path d="M237.698 395.966L237.843 396.005C243.058 386.688 248.674 375.441 253.887 363.492C254.684 361.669 255.492 359.784 256.289 357.894C257.165 355.814 258.042 353.699 258.889 351.613C259.119 351.054 259.227 350.376 259.309 349.684V349.682C259.154 349.458 259.006 349.229 258.859 349.001L258.852 349.054C258.761 349.892 258.671 350.758 258.41 351.399C257.563 353.483 256.688 355.596 255.81 357.673C255.013 359.558 254.207 361.441 253.412 363.266C248.206 375.196 242.904 386.664 237.698 395.966Z" fill="#2B295E"/>
<path d="M344.815 304.35C344.815 304.35 339.954 302.734 329.77 305.882C321.509 308.434 322.438 308.315 322.438 308.315L323.169 312.635C323.169 312.635 333.061 315.966 343.778 311.855C343.778 311.855 348.601 310.79 347.513 307.384C346.422 303.981 344.815 304.35 344.815 304.35Z" fill="#555CA3"/>
<path d="M300.958 376.288C308.343 377.269 313.395 377.552 326.569 374.423C340.811 371.061 351.803 363.194 357.583 349.737C360.569 342.758 361.71 335.233 361.819 328.258C361.719 321.634 360.695 315.659 359.552 311.409C358.32 306.814 356.236 302.927 353.821 300.061C346.505 307.72 329.967 325.783 317.18 344.325C309.448 355.536 303.086 366.92 300.958 376.288Z" fill="#D58B2A"/>
<path d="M301.841 376.401C307.528 351.896 342.012 313.409 354.227 300.558C356.469 303.371 358.389 307.075 359.552 311.409C360.696 315.659 361.719 321.634 361.819 328.258C361.71 335.233 360.569 342.758 357.583 349.737C351.803 363.194 340.811 371.061 326.569 374.423C313.925 377.426 308.764 377.285 301.841 376.401Z" fill="#D3652C"/>
<path d="M423.228 361.494C427.136 368.091 434.548 375.435 452.321 377.833C460.821 378.958 465.464 378.995 478.316 375.941C502.258 370.257 513.739 352.791 514.102 329.078C513.903 315.809 510.967 301.515 499.451 294.947C493.127 291.338 472.321 287.743 454.699 297.053C412.918 319.118 416.082 349.463 423.228 361.494Z" fill="#B5451E"/>
<path d="M493.027 405.177H466.188V365.717H458.97V405.177H433.164C431.765 405.177 430.625 406.32 430.625 407.719C430.625 409.117 431.765 410.26 433.164 410.26H493.027C494.426 410.26 495.569 409.117 495.569 407.719C495.569 406.32 494.426 405.177 493.027 405.177Z" fill="#B7BED4"/>
<path d="M506.872 356.568C498.031 354.535 481.715 351.284 465.89 351.129C465.588 351.125 465.287 351.123 464.988 351.123C461.409 351.112 457.774 351.231 454.145 351.523C442.58 352.455 430.586 353.485 420.315 354.393L420.265 354.398C421.04 357.161 422.085 359.563 423.229 361.494C427.138 368.091 434.548 375.435 452.32 377.833C460.821 378.958 465.464 378.995 478.319 375.941C491.591 372.789 501.029 366.018 506.872 356.568Z" fill="#B5451E"/>
<path d="M391.58 299.502C391.71 299.508 391.84 299.524 391.972 299.55C393.826 299.643 399.744 298.739 399.744 298.739C399.744 298.739 397.877 306.603 396.855 306.905C394.079 307.725 391.744 310.174 389.412 310.737C387.82 311.122 386.231 310.108 385.919 308.497C385.87 308.328 385.836 308.154 385.819 307.979C385.767 307.449 385.86 306.901 386.12 306.395L388.877 301.042C389.409 300.012 390.488 299.442 391.58 299.502Z" fill="#E5B0B4"/>
<path d="M401.076 297.576L396.271 298.58L395.294 307.596L401.234 307.568L401.076 297.576Z" fill="#CED4EA"/>
<path d="M401.073 297.577L401.23 307.571C401.23 307.571 409.724 307.9 418.237 307.559C425.716 307.266 433.213 306.452 434.977 304.448C436.988 302.163 438.434 284.578 439.345 268.67C440.139 254.758 440.526 242.133 440.526 242.133C440.526 242.133 434.107 245.14 432.967 245.914C428.105 249.211 420.897 291.528 420.897 291.528C420.897 291.528 403.419 296.653 401.073 297.577Z" fill="#DDE3F2"/>
<path d="M408.244 402.585L406.34 409.847L386.586 409.856C386.586 409.856 391.523 400.262 408.244 402.585Z" fill="#2B295E"/>
<path d="M489.794 280.692C490.444 282.312 491.16 284.193 492.062 285.848C494.057 289.503 496.168 292.646 496.168 292.646C496.007 292.947 495.256 293.349 494.113 293.815C493.217 294.184 492.072 294.595 490.788 295.026C490.775 291.651 491.453 293.554 491.135 289.055C490.829 284.763 490.69 282.929 489.794 280.692ZM440.527 322.072C441.773 323.321 455.547 323.681 466.62 324.107C476.364 324.481 485.297 324.607 485.297 324.607C487.304 322.094 489.415 317.312 490.358 309.232C493.205 308.883 495.814 308.374 498.187 307.778C506.215 305.762 511.469 302.735 513.491 301.424C514.062 301.055 514.346 300.37 514.201 299.705C512.781 293.284 504.889 259.896 491.324 245.913C490.844 245.423 489.623 243.756 471.621 240.229C470.81 242.439 462.899 246.108 455.979 245.75C455.219 245.71 454.086 244.671 454.076 244.669C448.611 243.895 446.011 240.963 446.267 240.567C446.039 240.589 440.527 242.132 440.527 242.132C432.464 277.435 438.779 320.315 440.527 322.072Z" fill="#DDE3F2"/>
<path d="M452.89 230.989C452.89 230.989 451.38 243.389 451.208 245.142L461.233 246.691L467.817 241.235C467.817 241.235 464.574 235.124 465.228 226.05L452.89 230.989Z" fill="url(#paint0_linear_4_4040)"/>
<path d="M466.619 324.108C476.363 324.481 485.119 328.366 485.119 328.366C487.124 325.856 489.414 317.312 490.358 309.232C493.203 308.883 495.814 308.375 498.185 307.778C496.718 302.699 495.199 297.524 494.111 293.815C493.216 294.184 492.07 294.595 490.786 295.026C490.774 291.651 491.452 293.554 491.134 289.055C490.829 284.763 489.924 277.824 487.384 277.399C485.126 277.021 484.578 287.594 483.561 297.334C483.059 302.145 482.442 306.755 481.446 309.738C481.088 310.808 480.685 311.672 480.217 312.258C476.033 317.524 465.482 320.881 466.619 324.108Z" fill="#CED4EA"/>
<path d="M451.642 231.955C451.642 231.955 466.001 232.611 466.272 223.654C466.545 214.694 468.58 208.746 459.421 207.947C450.265 207.149 448.379 210.514 447.563 213.482C446.746 216.45 447.914 231.553 451.642 231.955Z" fill="#E5B0B4"/>
<path d="M466.274 223.654C466.274 223.654 465.201 211.699 452.408 212.127C439.614 212.556 445.147 200.443 456.143 198.658C456.143 198.658 454.994 202.926 461.91 203.601C476.425 205.016 467.562 221.756 466.274 223.654Z" fill="#555CA3"/>
<path d="M383.95 402.584L382.044 409.847L362.293 409.855C362.293 409.855 367.228 400.262 383.95 402.584Z" fill="#333381"/>
<path d="M484.259 332.163C484.259 332.163 469.801 354.106 444.154 353.96C412.266 353.781 412.561 353.257 412.561 353.257C412.561 353.257 414.487 373.881 409.83 404.09L396.562 404.806C396.562 404.806 390.7 384.96 389.424 378.359C383.95 350.02 390.753 328.817 390.753 328.817C390.753 328.817 398.395 325.25 414.86 322.837C430.012 320.618 445.737 321.732 445.737 321.732C445.737 321.732 482.479 320.857 485.368 326.227C485.997 327.396 484.259 332.163 484.259 332.163Z" fill="#2B295E"/>
<path d="M459.429 245.879L452.833 245.178C452.833 245.178 452.007 245.362 452.168 246.4C452.327 247.439 454.5 250.255 455.317 250.396C456.135 250.538 461.214 247.793 459.429 245.879Z" fill="#C3592D"/>
<path d="M483.806 331.798C483.806 331.798 475.961 353.445 450.317 353.96C410.044 354.772 410.044 354.931 410.044 354.931C410.044 354.931 413.115 375.594 384.543 403.637H368.454C368.454 403.637 379.698 369.494 383.95 358.513C386.722 351.339 396.562 331.016 396.562 331.016C396.562 331.016 409.499 326.835 420.802 325.613C428.64 324.766 451.9 321.732 451.9 321.732C451.9 321.732 482.479 320.857 485.368 326.227C485.997 327.396 483.806 331.798 483.806 331.798Z" fill="#4F549E"/>
<path d="M451.986 238.472C451.986 238.472 453.083 243.376 455.978 245.749L451.516 251.562C451.516 251.562 446.109 245.155 446.265 240.567C446.265 240.567 450.557 238.642 451.986 238.472Z" fill="#CED4EA"/>
<path d="M451.985 238.473C451.985 238.473 452.821 243.089 455.715 245.463L451.426 250.747C451.426 250.747 446.718 245.271 446.265 240.568C446.265 240.568 450.554 238.643 451.985 238.473Z" fill="#DDE3F2"/>
<path d="M467.006 238.473C467.006 238.473 460.18 244.948 455.713 245.463L458.769 253.099C458.769 253.099 472.066 245.211 472.107 240.488C472.107 240.488 468.446 238.515 467.006 238.473Z" fill="#CED4EA"/>
<path d="M466.613 238.178C466.613 238.178 460.181 244.948 455.716 245.462L458.193 252.499C458.193 252.499 471.58 244.952 471.621 240.229C471.621 240.229 468.053 238.218 466.613 238.178Z" fill="#DDE3F2"/>
<path d="M478.317 375.941C502.259 370.257 513.739 352.791 514.102 329.078C513.947 318.786 512.146 307.88 505.974 300.439C497.487 309.371 478.02 330.822 464.988 351.123C458.948 360.531 454.151 369.928 452.296 377.828L452.321 377.833C460.821 378.958 465.464 378.995 478.317 375.941Z" fill="#D58B2A"/>
<path d="M514.102 329.078C513.95 319.034 512.231 308.404 506.409 300.98C497.72 310.167 478.692 331.182 465.886 351.13C459.793 360.628 454.996 369.996 453.176 377.943C461.146 378.955 465.902 378.891 478.316 375.941C502.258 370.257 513.739 352.791 514.102 329.078Z" fill="#D3652C"/>
<path d="M498.616 292.332C498.616 292.332 478.771 297.76 476.947 299.926L477.105 309.917C477.105 309.917 497.847 311.23 512.836 301.837C513.602 301.358 513.605 300.244 512.846 299.76C509.229 297.457 500.538 292.084 498.616 292.332Z" fill="#DDE3F2"/>
<path d="M418.239 307.558C425.719 307.265 433.218 306.451 434.982 304.447C436.992 302.162 435.057 277.072 435.965 261.164C428.799 275.761 434.11 287.403 432.74 295.025C431.381 302.588 424.604 306.016 418.239 307.558Z" fill="#CED4EA"/>
<path d="M414.166 344.287C414.886 344.181 415.676 343.809 416.437 343.451C417.146 343.118 417.875 342.773 418.498 342.678C426.49 341.442 433.733 339.931 440.123 338.596C441.799 338.247 443.441 337.904 445.049 337.575C459.595 334.607 467.846 332.98 467.929 332.969C467.846 332.98 459.532 334.083 444.972 337.055C443.358 337.385 441.719 337.727 440.043 338.076C433.655 339.409 426.421 340.921 418.443 342.154C417.748 342.26 416.979 342.623 416.241 342.972C415.512 343.314 414.76 343.668 414.114 343.763C412.01 344.07 412.062 344.594 414.166 344.287Z" fill="#333381"/>
<path d="M382.098 397.345L382.236 397.384C387.163 388.067 392.464 376.818 397.388 364.871C398.141 363.045 398.902 361.16 399.655 359.273C400.482 357.191 401.31 355.078 402.112 352.992C402.329 352.433 402.431 351.752 402.507 351.063V351.06C402.362 350.837 402.223 350.608 402.08 350.378L402.078 350.431C401.991 351.271 401.907 352.135 401.66 352.778C400.858 354.862 400.033 356.972 399.206 359.052C398.453 360.937 397.69 362.82 396.939 364.645C392.022 376.575 387.017 388.043 382.098 397.345Z" fill="#333381"/>
<path d="M456.341 249.624C456.341 249.624 457.588 261.432 457.814 265.384C458.436 276.498 458.664 309.904 458.664 309.904C458.664 309.904 458.994 312.819 457.048 315.146C455.105 317.471 453.074 319.065 453.074 319.065C453.074 319.065 450.219 316.565 449.09 311.871C448.338 308.746 450.143 282.516 451.968 265.044C452.886 256.261 454.398 249.386 454.398 249.386C454.398 249.386 455.888 249.125 456.341 249.624Z" fill="#D3652C"/>
<path d="M461.95 308.169L464.431 303.358C464.908 302.432 465.877 301.922 466.858 301.973C466.977 301.979 474.198 301.288 474.198 301.288C474.198 301.288 470.375 310.894 469.677 311.617C469.424 311.876 469.083 312.021 468.725 312.024C467.044 312.035 462.081 311.911 461.769 310.059C461.726 309.909 461.697 309.752 461.679 309.595C461.633 309.118 461.714 308.625 461.95 308.169Z" fill="#E5B0B4"/>
<path d="M476.947 299.925L472.141 300.929L471.166 309.946L477.105 309.917L476.947 299.925Z" fill="#CED4EA"/>
<path d="M523.1 311.917H190.545C187.81 311.917 185.594 314.136 185.594 316.874C185.594 319.61 187.81 321.829 190.545 321.829H347.527V391.126C335.278 392.962 326.055 400.821 325.964 410.26H347.527H358.817H380.069C379.991 401.933 372.805 394.836 362.704 392.019C361.451 391.669 360.152 391.389 358.817 391.177V321.829H523.1C525.837 321.829 528.053 319.61 528.053 316.874C528.053 314.136 525.837 311.917 523.1 311.917Z" fill="#DC8D39"/>
<path d="M380.071 410.26H358.817H347.527H345.337C345.414 401.932 352.603 394.836 362.704 392.018C372.807 394.836 379.994 401.932 380.071 410.26Z" fill="#E5AE55"/>
<path d="M281.666 277.717H236.345L245.727 310.777H290.667L281.666 277.717Z" fill="#DAB656"/>
<path d="M280.971 277.717H235.647L245.032 310.777H289.972L280.971 277.717Z" fill="#EECF70"/>
<path d="M303.467 311.917H245.032V310.777H303.467V311.917Z" fill="#DAB656"/>
<path d="M261.563 297.053C261.362 297.053 261.154 297.026 260.94 296.973C259.521 296.62 258.373 295.183 258.373 293.764C258.373 292.56 259.201 291.755 260.316 291.755C260.516 291.755 260.724 291.782 260.94 291.835C262.355 292.189 263.506 293.625 263.506 295.044C263.506 296.248 262.678 297.053 261.563 297.053Z" fill="#EAC165"/>
<path d="M415.415 277.718H370.093L379.48 310.777H424.419L415.415 277.718Z" fill="#333381"/>
<path d="M414.722 277.718H369.399L378.784 310.777H423.724L414.722 277.718Z" fill="#555CA3"/>
<path d="M437.219 311.918H378.784V310.777H437.219V311.918Z" fill="#555CA3"/>
<path d="M397.257 295.044C397.257 293.625 396.107 292.189 394.691 291.835C393.272 291.482 392.124 292.346 392.124 293.765C392.124 295.184 393.272 296.62 394.691 296.974C396.107 297.327 397.257 296.463 397.257 295.044Z" fill="#DDE3F2"/>
<defs>
<linearGradient id="paint0_linear_4_4040" x1="597.377" y1="188.095" x2="597.377" y2="161.258" gradientUnits="userSpaceOnUse">
<stop stop-color="#E5B0B4"/>
<stop offset="0.512019" stop-color="#E5B0B4"/>
<stop offset="1" stop-color="#C78A91"/>
</linearGradient>
</defs>
</svg>
